<mxfile host="65bd71144e">
    <diagram id="DEVxetDqgwsP04Wf-5Z7" name="Страница 1">
        <mxGraphModel dx="1200" dy="468" grid="1" gridSize="10" guides="1" tooltips="1" connect="1" arrows="1" fold="1" page="1" pageScale="1" pageWidth="827" pageHeight="1169" math="0" shadow="0">
            <root>
                <mxCell id="0"/>
                <mxCell id="1" parent="0"/>
                <mxCell id="2" value="Создать массив" style="rounded=0;whiteSpace=wrap;html=1;" vertex="1" parent="1">
                    <mxGeometry x="340" y="40" width="120" height="60" as="geometry"/>
                </mxCell>
                <mxCell id="3" value="for (int i = 0; i &amp;lt; count; i++)" style="rounded=1;whiteSpace=wrap;html=1;" vertex="1" parent="1">
                    <mxGeometry x="92.5" y="340" width="230" height="40" as="geometry"/>
                </mxCell>
                <mxCell id="4" value="" style="rounded=1;whiteSpace=wrap;html=1;" vertex="1" parent="1">
                    <mxGeometry x="480" y="120" width="120" height="60" as="geometry"/>
                </mxCell>
                <mxCell id="6" value="int.Parse(Console.Readline(count)&lt;br&gt;//Количество элементов массива" style="rounded=1;whiteSpace=wrap;html=1;" vertex="1" parent="1">
                    <mxGeometry y="120" width="290" height="60" as="geometry"/>
                </mxCell>
                <mxCell id="7" value="Рандомный генератор чисел&lt;br&gt;Random rand = new Random();" style="rounded=0;whiteSpace=wrap;html=1;" vertex="1" parent="1">
                    <mxGeometry y="260" width="320" height="60" as="geometry"/>
                </mxCell>
                <mxCell id="8" value="array[i] = Next(-10, 10)" style="rounded=1;whiteSpace=wrap;html=1;" vertex="1" parent="1">
                    <mxGeometry x="120" y="470" width="165" height="60" as="geometry"/>
                </mxCell>
                <mxCell id="9" value="Инициализируем массивы&amp;nbsp;&lt;br&gt;int[] array = new int [count]" style="rounded=1;whiteSpace=wrap;html=1;" vertex="1" parent="1">
                    <mxGeometry y="190" width="240" height="60" as="geometry"/>
                </mxCell>
                <mxCell id="11" value="" style="endArrow=classic;html=1;exitX=0.452;exitY=1.025;exitDx=0;exitDy=0;exitPerimeter=0;" edge="1" parent="1" source="3" target="8">
                    <mxGeometry width="50" height="50" relative="1" as="geometry">
                        <mxPoint x="140" y="510" as="sourcePoint"/>
                        <mxPoint x="190" y="460" as="targetPoint"/>
                    </mxGeometry>
                </mxCell>
                <mxCell id="12" value="" style="curved=1;endArrow=classic;html=1;exitX=0;exitY=0.5;exitDx=0;exitDy=0;entryX=0;entryY=0.5;entryDx=0;entryDy=0;" edge="1" parent="1" source="8" target="3">
                    <mxGeometry width="50" height="50" relative="1" as="geometry">
                        <mxPoint x="140" y="510" as="sourcePoint"/>
                        <mxPoint x="190" y="460" as="targetPoint"/>
                        <Array as="points">
                            <mxPoint x="20" y="460"/>
                        </Array>
                    </mxGeometry>
                </mxCell>
            </root>
        </mxGraphModel>
    </diagram>
</mxfile>